<mxfile host="app.diagrams.net" modified="2023-09-25T03:38:22.585Z" agent="Mozilla/5.0 (Windows NT 10.0; Win64; x64) AppleWebKit/537.36 (KHTML, like Gecko) Chrome/117.0.0.0 Safari/537.36" etag="jIkiSwz2ve9FD3_PM_ol" version="21.8.1" type="github">
  <diagram name="Page-1" id="42789a77-a242-8287-6e28-9cd8cfd52e62">
    <mxGraphModel dx="956" dy="1348" grid="1" gridSize="10" guides="1" tooltips="1" connect="1" arrows="1" fold="1" page="1" pageScale="1" pageWidth="1100" pageHeight="850" background="none" math="0" shadow="0">
      <root>
        <mxCell id="0" />
        <mxCell id="1" parent="0" />
        <mxCell id="izBLebLg28j8Ur3fJXYg-1" value="&lt;font style=&quot;font-size: 14px;&quot;&gt;GENERALIDADES Y CONCEPTOS BASICOS DEL LENGUAJE C++&lt;/font&gt;" style="rounded=0;whiteSpace=wrap;html=1;fontSize=16;fillColor=#f8cecc;strokeColor=#b85450;sketch=1;curveFitting=1;jiggle=2;" vertex="1" parent="1">
          <mxGeometry x="380" y="170" width="160" height="70" as="geometry" />
        </mxCell>
        <mxCell id="izBLebLg28j8Ur3fJXYg-4" value="" style="endArrow=classic;html=1;rounded=0;fontSize=12;startSize=8;endSize=8;curved=1;exitX=0.5;exitY=1;exitDx=0;exitDy=0;sketch=1;curveFitting=1;jiggle=2;" edge="1" parent="1" source="izBLebLg28j8Ur3fJXYg-1">
          <mxGeometry width="50" height="50" relative="1" as="geometry">
            <mxPoint x="470" y="370" as="sourcePoint" />
            <mxPoint x="460" y="290" as="targetPoint" />
          </mxGeometry>
        </mxCell>
        <mxCell id="izBLebLg28j8Ur3fJXYg-5" value="O&lt;font style=&quot;font-size: 14px;&quot;&gt;PERADORES EN C++&lt;/font&gt;" style="rounded=0;whiteSpace=wrap;html=1;fontSize=16;fillColor=#d5e8d4;strokeColor=#82b366;sketch=1;curveFitting=1;jiggle=2;" vertex="1" parent="1">
          <mxGeometry x="400" y="290" width="120" height="60" as="geometry" />
        </mxCell>
        <mxCell id="izBLebLg28j8Ur3fJXYg-9" style="edgeStyle=none;curved=1;rounded=0;orthogonalLoop=1;jettySize=auto;html=1;exitX=0.5;exitY=1;exitDx=0;exitDy=0;fontSize=12;startSize=8;endSize=8;sketch=1;curveFitting=1;jiggle=2;" edge="1" parent="1" source="izBLebLg28j8Ur3fJXYg-6" target="izBLebLg28j8Ur3fJXYg-6">
          <mxGeometry relative="1" as="geometry">
            <mxPoint x="460" y="470" as="targetPoint" />
          </mxGeometry>
        </mxCell>
        <mxCell id="izBLebLg28j8Ur3fJXYg-6" value="&lt;div style=&quot;&quot;&gt;&lt;span style=&quot;background-color: initial;&quot;&gt;un operador es un elemento de programa que se aplica a uno varios operados en una expresión o instruccion&amp;nbsp;&lt;/span&gt;&lt;/div&gt;" style="rounded=0;whiteSpace=wrap;html=1;fontSize=16;align=center;fillColor=#d5e8d4;strokeColor=#82b366;sketch=1;curveFitting=1;jiggle=2;" vertex="1" parent="1">
          <mxGeometry x="230" y="373" width="460" height="105" as="geometry" />
        </mxCell>
        <mxCell id="izBLebLg28j8Ur3fJXYg-8" value="" style="endArrow=classic;html=1;rounded=0;fontSize=12;startSize=8;endSize=8;curved=1;exitX=0.5;exitY=1;exitDx=0;exitDy=0;entryX=0.5;entryY=0;entryDx=0;entryDy=0;sketch=1;curveFitting=1;jiggle=2;" edge="1" parent="1" source="izBLebLg28j8Ur3fJXYg-5" target="izBLebLg28j8Ur3fJXYg-6">
          <mxGeometry width="50" height="50" relative="1" as="geometry">
            <mxPoint x="470" y="260" as="sourcePoint" />
            <mxPoint x="520" y="210" as="targetPoint" />
          </mxGeometry>
        </mxCell>
        <mxCell id="izBLebLg28j8Ur3fJXYg-11" value="" style="endArrow=classic;html=1;rounded=0;fontSize=12;startSize=8;endSize=8;curved=1;exitX=0.043;exitY=1.019;exitDx=0;exitDy=0;exitPerimeter=0;entryX=0.667;entryY=0;entryDx=0;entryDy=0;entryPerimeter=0;sketch=1;curveFitting=1;jiggle=2;" edge="1" parent="1" source="izBLebLg28j8Ur3fJXYg-6" target="izBLebLg28j8Ur3fJXYg-18">
          <mxGeometry width="50" height="50" relative="1" as="geometry">
            <mxPoint x="470" y="460" as="sourcePoint" />
            <mxPoint x="170" y="500" as="targetPoint" />
          </mxGeometry>
        </mxCell>
        <mxCell id="izBLebLg28j8Ur3fJXYg-12" value="" style="endArrow=classic;html=1;rounded=0;fontSize=12;startSize=8;endSize=8;curved=1;entryX=0.583;entryY=0;entryDx=0;entryDy=0;entryPerimeter=0;sketch=1;curveFitting=1;jiggle=2;" edge="1" parent="1" target="izBLebLg28j8Ur3fJXYg-27">
          <mxGeometry width="50" height="50" relative="1" as="geometry">
            <mxPoint x="270" y="480" as="sourcePoint" />
            <mxPoint x="267" y="590" as="targetPoint" />
          </mxGeometry>
        </mxCell>
        <mxCell id="izBLebLg28j8Ur3fJXYg-13" value="" style="endArrow=classic;html=1;rounded=0;fontSize=12;startSize=8;endSize=8;curved=1;exitX=0.25;exitY=1;exitDx=0;exitDy=0;sketch=1;curveFitting=1;jiggle=2;" edge="1" parent="1" source="izBLebLg28j8Ur3fJXYg-6" target="izBLebLg28j8Ur3fJXYg-21">
          <mxGeometry width="50" height="50" relative="1" as="geometry">
            <mxPoint x="345" y="490" as="sourcePoint" />
            <mxPoint x="376" y="520" as="targetPoint" />
          </mxGeometry>
        </mxCell>
        <mxCell id="izBLebLg28j8Ur3fJXYg-14" value="" style="endArrow=classic;html=1;rounded=0;fontSize=12;startSize=8;endSize=8;curved=1;entryX=0.5;entryY=0;entryDx=0;entryDy=0;sketch=1;curveFitting=1;jiggle=2;" edge="1" parent="1" target="izBLebLg28j8Ur3fJXYg-22">
          <mxGeometry width="50" height="50" relative="1" as="geometry">
            <mxPoint x="460" y="480" as="sourcePoint" />
            <mxPoint x="460" y="580" as="targetPoint" />
          </mxGeometry>
        </mxCell>
        <mxCell id="izBLebLg28j8Ur3fJXYg-15" value="" style="endArrow=classic;html=1;rounded=0;fontSize=12;startSize=8;endSize=8;curved=1;exitX=0.904;exitY=1.019;exitDx=0;exitDy=0;exitPerimeter=0;entryX=0.5;entryY=0;entryDx=0;entryDy=0;sketch=1;curveFitting=1;jiggle=2;" edge="1" parent="1" source="izBLebLg28j8Ur3fJXYg-6" target="izBLebLg28j8Ur3fJXYg-24">
          <mxGeometry width="50" height="50" relative="1" as="geometry">
            <mxPoint x="365" y="510" as="sourcePoint" />
            <mxPoint x="656" y="520" as="targetPoint" />
          </mxGeometry>
        </mxCell>
        <mxCell id="izBLebLg28j8Ur3fJXYg-16" value="" style="endArrow=classic;html=1;rounded=0;fontSize=12;startSize=8;endSize=8;curved=1;exitX=0.698;exitY=1.057;exitDx=0;exitDy=0;entryX=0.5;entryY=0;entryDx=0;entryDy=0;exitPerimeter=0;sketch=1;curveFitting=1;jiggle=2;" edge="1" parent="1" source="izBLebLg28j8Ur3fJXYg-6" target="izBLebLg28j8Ur3fJXYg-23">
          <mxGeometry width="50" height="50" relative="1" as="geometry">
            <mxPoint x="375" y="520" as="sourcePoint" />
            <mxPoint x="585" y="520" as="targetPoint" />
          </mxGeometry>
        </mxCell>
        <mxCell id="izBLebLg28j8Ur3fJXYg-17" value="" style="endArrow=classic;html=1;rounded=0;fontSize=12;startSize=8;endSize=8;curved=1;exitX=1;exitY=1;exitDx=0;exitDy=0;entryX=0;entryY=0;entryDx=0;entryDy=0;sketch=1;curveFitting=1;jiggle=2;" edge="1" parent="1" source="izBLebLg28j8Ur3fJXYg-6" target="izBLebLg28j8Ur3fJXYg-25">
          <mxGeometry width="50" height="50" relative="1" as="geometry">
            <mxPoint x="570" y="480" as="sourcePoint" />
            <mxPoint x="740" y="510" as="targetPoint" />
          </mxGeometry>
        </mxCell>
        <mxCell id="izBLebLg28j8Ur3fJXYg-18" value="operadores aritméticos" style="rounded=0;whiteSpace=wrap;html=1;fontSize=16;fillColor=#d5e8d4;strokeColor=#82b366;sketch=1;curveFitting=1;jiggle=2;" vertex="1" parent="1">
          <mxGeometry x="100" y="510" width="120" height="60" as="geometry" />
        </mxCell>
        <mxCell id="izBLebLg28j8Ur3fJXYg-21" value="operadores logícos" style="rounded=0;whiteSpace=wrap;html=1;fontSize=16;fillColor=#d5e8d4;strokeColor=#82b366;sketch=1;curveFitting=1;jiggle=2;" vertex="1" parent="1">
          <mxGeometry x="290" y="530" width="120" height="60" as="geometry" />
        </mxCell>
        <mxCell id="izBLebLg28j8Ur3fJXYg-22" value="operadores relacionales" style="rounded=0;whiteSpace=wrap;html=1;fontSize=16;fillColor=#d5e8d4;strokeColor=#82b366;sketch=1;curveFitting=1;jiggle=2;" vertex="1" parent="1">
          <mxGeometry x="400" y="600" width="120" height="60" as="geometry" />
        </mxCell>
        <mxCell id="izBLebLg28j8Ur3fJXYg-23" value="operadores de BITS" style="rounded=0;whiteSpace=wrap;html=1;fontSize=16;fillColor=#d5e8d4;strokeColor=#82b366;sketch=1;curveFitting=1;jiggle=2;" vertex="1" parent="1">
          <mxGeometry x="500" y="530" width="120" height="60" as="geometry" />
        </mxCell>
        <mxCell id="izBLebLg28j8Ur3fJXYg-24" value="otros operadores" style="rounded=0;whiteSpace=wrap;html=1;fontSize=16;fillColor=#d5e8d4;strokeColor=#82b366;sketch=1;curveFitting=1;jiggle=2;" vertex="1" parent="1">
          <mxGeometry x="630" y="520" width="120" height="60" as="geometry" />
        </mxCell>
        <mxCell id="izBLebLg28j8Ur3fJXYg-25" value="operadores de dirección" style="rounded=0;whiteSpace=wrap;html=1;fontSize=16;fillColor=#d5e8d4;strokeColor=#82b366;sketch=1;curveFitting=1;jiggle=2;" vertex="1" parent="1">
          <mxGeometry x="760" y="500" width="120" height="60" as="geometry" />
        </mxCell>
        <mxCell id="izBLebLg28j8Ur3fJXYg-26" style="edgeStyle=none;curved=1;rounded=0;orthogonalLoop=1;jettySize=auto;html=1;entryX=0.25;entryY=0;entryDx=0;entryDy=0;fontSize=12;startSize=8;endSize=8;sketch=1;curveFitting=1;jiggle=2;" edge="1" parent="1" source="izBLebLg28j8Ur3fJXYg-21" target="izBLebLg28j8Ur3fJXYg-21">
          <mxGeometry relative="1" as="geometry" />
        </mxCell>
        <mxCell id="izBLebLg28j8Ur3fJXYg-27" value="operadores de asignación" style="rounded=0;whiteSpace=wrap;html=1;fontSize=16;fillColor=#d5e8d4;strokeColor=#82b366;sketch=1;curveFitting=1;jiggle=2;" vertex="1" parent="1">
          <mxGeometry x="200" y="600" width="120" height="60" as="geometry" />
        </mxCell>
        <mxCell id="izBLebLg28j8Ur3fJXYg-28" value="" style="endArrow=classic;html=1;rounded=0;fontSize=12;startSize=8;endSize=8;curved=1;exitX=0.5;exitY=0;exitDx=0;exitDy=0;sketch=1;curveFitting=1;jiggle=2;" edge="1" parent="1" source="izBLebLg28j8Ur3fJXYg-1">
          <mxGeometry width="50" height="50" relative="1" as="geometry">
            <mxPoint x="380" y="180" as="sourcePoint" />
            <mxPoint x="460" y="140" as="targetPoint" />
          </mxGeometry>
        </mxCell>
        <mxCell id="izBLebLg28j8Ur3fJXYg-29" value="ELEMENTOS BASICOS DE LENGUAJES C++" style="rounded=0;whiteSpace=wrap;html=1;fontSize=16;fillColor=#d5e8d4;strokeColor=#82b366;sketch=1;curveFitting=1;jiggle=2;" vertex="1" parent="1">
          <mxGeometry x="360" y="90" width="200" height="50" as="geometry" />
        </mxCell>
        <mxCell id="izBLebLg28j8Ur3fJXYg-30" value="" style="endArrow=classic;html=1;rounded=0;fontSize=12;startSize=8;endSize=8;curved=1;exitX=0.25;exitY=0;exitDx=0;exitDy=0;sketch=1;curveFitting=1;jiggle=2;" edge="1" parent="1" source="izBLebLg28j8Ur3fJXYg-29">
          <mxGeometry width="50" height="50" relative="1" as="geometry">
            <mxPoint x="380" y="80" as="sourcePoint" />
            <mxPoint x="380" y="50" as="targetPoint" />
          </mxGeometry>
        </mxCell>
        <mxCell id="izBLebLg28j8Ur3fJXYg-31" value="" style="endArrow=classic;html=1;rounded=0;fontSize=12;startSize=8;endSize=8;curved=1;exitX=0.75;exitY=0;exitDx=0;exitDy=0;sketch=1;curveFitting=1;jiggle=2;" edge="1" parent="1" source="izBLebLg28j8Ur3fJXYg-29">
          <mxGeometry width="50" height="50" relative="1" as="geometry">
            <mxPoint x="380" y="80" as="sourcePoint" />
            <mxPoint x="540" y="50" as="targetPoint" />
          </mxGeometry>
        </mxCell>
        <mxCell id="izBLebLg28j8Ur3fJXYg-54" style="edgeStyle=none;curved=1;rounded=0;orthogonalLoop=1;jettySize=auto;html=1;exitX=0.5;exitY=0;exitDx=0;exitDy=0;entryX=0.5;entryY=1;entryDx=0;entryDy=0;fontSize=12;startSize=8;endSize=8;sketch=1;curveFitting=1;jiggle=2;" edge="1" parent="1" source="izBLebLg28j8Ur3fJXYg-32" target="izBLebLg28j8Ur3fJXYg-50">
          <mxGeometry relative="1" as="geometry" />
        </mxCell>
        <mxCell id="izBLebLg28j8Ur3fJXYg-56" style="edgeStyle=none;curved=1;rounded=0;orthogonalLoop=1;jettySize=auto;html=1;exitX=0;exitY=0;exitDx=0;exitDy=0;entryX=1;entryY=0.5;entryDx=0;entryDy=0;fontSize=12;startSize=8;endSize=8;sketch=1;curveFitting=1;jiggle=2;" edge="1" parent="1" source="izBLebLg28j8Ur3fJXYg-32" target="izBLebLg28j8Ur3fJXYg-52">
          <mxGeometry relative="1" as="geometry" />
        </mxCell>
        <mxCell id="izBLebLg28j8Ur3fJXYg-32" value="&lt;font style=&quot;font-size: 14px;&quot;&gt;ESTRUCTURA DE UN PROGRAMA EN C++&lt;/font&gt;" style="rounded=0;whiteSpace=wrap;html=1;fontSize=16;fillColor=#d5e8d4;strokeColor=#82b366;sketch=1;curveFitting=1;jiggle=2;" vertex="1" parent="1">
          <mxGeometry x="300" y="-10" width="130" height="60" as="geometry" />
        </mxCell>
        <mxCell id="izBLebLg28j8Ur3fJXYg-45" style="edgeStyle=none;curved=1;rounded=0;orthogonalLoop=1;jettySize=auto;html=1;exitX=1;exitY=0;exitDx=0;exitDy=0;fontSize=12;startSize=8;endSize=8;sketch=1;curveFitting=1;jiggle=2;" edge="1" parent="1" source="izBLebLg28j8Ur3fJXYg-33" target="izBLebLg28j8Ur3fJXYg-40">
          <mxGeometry relative="1" as="geometry" />
        </mxCell>
        <mxCell id="izBLebLg28j8Ur3fJXYg-46" style="edgeStyle=none;curved=1;rounded=0;orthogonalLoop=1;jettySize=auto;html=1;exitX=1;exitY=0.25;exitDx=0;exitDy=0;entryX=0;entryY=1;entryDx=0;entryDy=0;fontSize=12;startSize=8;endSize=8;sketch=1;curveFitting=1;jiggle=2;" edge="1" parent="1" source="izBLebLg28j8Ur3fJXYg-33" target="izBLebLg28j8Ur3fJXYg-39">
          <mxGeometry relative="1" as="geometry" />
        </mxCell>
        <mxCell id="izBLebLg28j8Ur3fJXYg-47" style="edgeStyle=none;curved=1;rounded=0;orthogonalLoop=1;jettySize=auto;html=1;exitX=0.75;exitY=0;exitDx=0;exitDy=0;entryX=0;entryY=0.5;entryDx=0;entryDy=0;fontSize=12;startSize=8;endSize=8;sketch=1;curveFitting=1;jiggle=2;" edge="1" parent="1" source="izBLebLg28j8Ur3fJXYg-33" target="izBLebLg28j8Ur3fJXYg-38">
          <mxGeometry relative="1" as="geometry" />
        </mxCell>
        <mxCell id="izBLebLg28j8Ur3fJXYg-48" style="edgeStyle=none;curved=1;rounded=0;orthogonalLoop=1;jettySize=auto;html=1;exitX=0.5;exitY=0;exitDx=0;exitDy=0;entryX=0.5;entryY=1;entryDx=0;entryDy=0;fontSize=12;startSize=8;endSize=8;sketch=1;curveFitting=1;jiggle=2;" edge="1" parent="1" source="izBLebLg28j8Ur3fJXYg-33" target="izBLebLg28j8Ur3fJXYg-36">
          <mxGeometry relative="1" as="geometry" />
        </mxCell>
        <mxCell id="izBLebLg28j8Ur3fJXYg-33" value="&lt;font style=&quot;font-size: 14px;&quot;&gt;CONSTANTES Y VARIABLES&lt;/font&gt;" style="rounded=0;whiteSpace=wrap;html=1;fontSize=16;fillColor=#d5e8d4;strokeColor=#82b366;sketch=1;curveFitting=1;jiggle=2;" vertex="1" parent="1">
          <mxGeometry x="500" y="-10" width="120" height="60" as="geometry" />
        </mxCell>
        <mxCell id="izBLebLg28j8Ur3fJXYg-34" style="edgeStyle=none;curved=1;rounded=0;orthogonalLoop=1;jettySize=auto;html=1;exitX=0.5;exitY=0;exitDx=0;exitDy=0;fontSize=12;startSize=8;endSize=8;sketch=1;curveFitting=1;jiggle=2;" edge="1" parent="1" source="izBLebLg28j8Ur3fJXYg-32" target="izBLebLg28j8Ur3fJXYg-32">
          <mxGeometry relative="1" as="geometry" />
        </mxCell>
        <mxCell id="izBLebLg28j8Ur3fJXYg-35" style="edgeStyle=none;curved=1;rounded=0;orthogonalLoop=1;jettySize=auto;html=1;exitX=0;exitY=0.5;exitDx=0;exitDy=0;fontSize=12;startSize=8;endSize=8;sketch=1;curveFitting=1;jiggle=2;" edge="1" parent="1" source="izBLebLg28j8Ur3fJXYg-32" target="izBLebLg28j8Ur3fJXYg-32">
          <mxGeometry relative="1" as="geometry" />
        </mxCell>
        <mxCell id="izBLebLg28j8Ur3fJXYg-36" value="&lt;font style=&quot;font-size: 14px;&quot;&gt;funciones biblioteca estandar de c++&lt;/font&gt;" style="ellipse;whiteSpace=wrap;html=1;aspect=fixed;fontSize=16;fillColor=#d5e8d4;strokeColor=#82b366;rounded=0;sketch=1;curveFitting=1;jiggle=2;" vertex="1" parent="1">
          <mxGeometry x="610" y="-280" width="90" height="90" as="geometry" />
        </mxCell>
        <mxCell id="izBLebLg28j8Ur3fJXYg-38" value="&lt;font style=&quot;font-size: 14px;&quot;&gt;declaraciones de variables&lt;/font&gt;" style="ellipse;whiteSpace=wrap;html=1;aspect=fixed;fontSize=16;fillColor=#d5e8d4;strokeColor=#82b366;rounded=0;sketch=1;curveFitting=1;jiggle=2;" vertex="1" parent="1">
          <mxGeometry x="680" y="-200" width="90" height="90" as="geometry" />
        </mxCell>
        <mxCell id="izBLebLg28j8Ur3fJXYg-39" value="&lt;font style=&quot;font-size: 14px;&quot;&gt;funciones definidas por el usuario&lt;/font&gt;" style="ellipse;whiteSpace=wrap;html=1;aspect=fixed;fontSize=16;fillColor=#d5e8d4;strokeColor=#82b366;rounded=0;sketch=1;curveFitting=1;jiggle=2;" vertex="1" parent="1">
          <mxGeometry x="730" y="-50" width="90" height="90" as="geometry" />
        </mxCell>
        <mxCell id="izBLebLg28j8Ur3fJXYg-40" value="funciones" style="ellipse;whiteSpace=wrap;html=1;aspect=fixed;fontSize=16;fillColor=#d5e8d4;strokeColor=#82b366;rounded=0;sketch=1;curveFitting=1;jiggle=2;" vertex="1" parent="1">
          <mxGeometry x="660" y="-90" width="80" height="80" as="geometry" />
        </mxCell>
        <mxCell id="izBLebLg28j8Ur3fJXYg-41" value="&amp;nbsp;función main" style="ellipse;whiteSpace=wrap;html=1;aspect=fixed;fontSize=16;fillColor=#d5e8d4;strokeColor=#82b366;rounded=0;sketch=1;curveFitting=1;jiggle=2;" vertex="1" parent="1">
          <mxGeometry x="680" y="50" width="80" height="80" as="geometry" />
        </mxCell>
        <mxCell id="izBLebLg28j8Ur3fJXYg-42" value="funciones de entrada y salida&amp;nbsp;" style="ellipse;whiteSpace=wrap;html=1;aspect=fixed;fontSize=16;fillColor=#d5e8d4;strokeColor=#82b366;rounded=0;sketch=1;curveFitting=1;jiggle=2;" vertex="1" parent="1">
          <mxGeometry x="490" y="-200" width="110" height="110" as="geometry" />
        </mxCell>
        <mxCell id="izBLebLg28j8Ur3fJXYg-43" value="" style="endArrow=classic;html=1;rounded=0;fontSize=12;startSize=8;endSize=8;curved=1;exitX=0.417;exitY=-0.017;exitDx=0;exitDy=0;exitPerimeter=0;entryX=0.5;entryY=1;entryDx=0;entryDy=0;sketch=1;curveFitting=1;jiggle=2;" edge="1" parent="1" source="izBLebLg28j8Ur3fJXYg-33" target="izBLebLg28j8Ur3fJXYg-42">
          <mxGeometry width="50" height="50" relative="1" as="geometry">
            <mxPoint x="610" y="-60" as="sourcePoint" />
            <mxPoint x="660" y="-110" as="targetPoint" />
          </mxGeometry>
        </mxCell>
        <mxCell id="izBLebLg28j8Ur3fJXYg-44" style="edgeStyle=none;curved=1;rounded=0;orthogonalLoop=1;jettySize=auto;html=1;exitX=1;exitY=0.5;exitDx=0;exitDy=0;entryX=0.05;entryY=0.3;entryDx=0;entryDy=0;entryPerimeter=0;fontSize=12;startSize=8;endSize=8;sketch=1;curveFitting=1;jiggle=2;" edge="1" parent="1" source="izBLebLg28j8Ur3fJXYg-33" target="izBLebLg28j8Ur3fJXYg-41">
          <mxGeometry relative="1" as="geometry" />
        </mxCell>
        <mxCell id="izBLebLg28j8Ur3fJXYg-49" value="tipos de datos&amp;nbsp;" style="ellipse;whiteSpace=wrap;html=1;aspect=fixed;fontSize=16;fillColor=#d5e8d4;strokeColor=#82b366;rounded=0;sketch=1;curveFitting=1;jiggle=2;" vertex="1" parent="1">
          <mxGeometry x="400" y="-140" width="80" height="80" as="geometry" />
        </mxCell>
        <mxCell id="izBLebLg28j8Ur3fJXYg-50" value="tipos de datos numericos&amp;nbsp;" style="ellipse;whiteSpace=wrap;html=1;aspect=fixed;fontSize=16;fillColor=#d5e8d4;strokeColor=#82b366;rounded=0;sketch=1;curveFitting=1;jiggle=2;" vertex="1" parent="1">
          <mxGeometry x="305" y="-180" width="90" height="90" as="geometry" />
        </mxCell>
        <mxCell id="izBLebLg28j8Ur3fJXYg-51" value="tipos de datos de caracter" style="ellipse;whiteSpace=wrap;html=1;aspect=fixed;fontSize=16;fillColor=#d5e8d4;strokeColor=#82b366;rounded=0;sketch=1;curveFitting=1;jiggle=2;" vertex="1" parent="1">
          <mxGeometry x="200" y="-170" width="80" height="80" as="geometry" />
        </mxCell>
        <mxCell id="izBLebLg28j8Ur3fJXYg-52" value="tipos de referencia" style="ellipse;whiteSpace=wrap;html=1;aspect=fixed;fontSize=16;fillColor=#d5e8d4;strokeColor=#82b366;rounded=0;sketch=1;curveFitting=1;jiggle=2;" vertex="1" parent="1">
          <mxGeometry x="190" y="-80" width="80" height="80" as="geometry" />
        </mxCell>
        <mxCell id="izBLebLg28j8Ur3fJXYg-53" style="edgeStyle=none;curved=1;rounded=0;orthogonalLoop=1;jettySize=auto;html=1;exitX=0.75;exitY=0;exitDx=0;exitDy=0;entryX=0.413;entryY=0.988;entryDx=0;entryDy=0;entryPerimeter=0;fontSize=12;startSize=8;endSize=8;sketch=1;curveFitting=1;jiggle=2;" edge="1" parent="1" source="izBLebLg28j8Ur3fJXYg-32" target="izBLebLg28j8Ur3fJXYg-49">
          <mxGeometry relative="1" as="geometry" />
        </mxCell>
        <mxCell id="izBLebLg28j8Ur3fJXYg-55" style="edgeStyle=none;curved=1;rounded=0;orthogonalLoop=1;jettySize=auto;html=1;exitX=0.25;exitY=0;exitDx=0;exitDy=0;entryX=0.963;entryY=0.85;entryDx=0;entryDy=0;entryPerimeter=0;fontSize=12;startSize=8;endSize=8;sketch=1;curveFitting=1;jiggle=2;" edge="1" parent="1" source="izBLebLg28j8Ur3fJXYg-32" target="izBLebLg28j8Ur3fJXYg-51">
          <mxGeometry relative="1" as="geometry" />
        </mxCell>
      </root>
    </mxGraphModel>
  </diagram>
</mxfile>
